<?xml version="1.0" encoding="UTF-8" standalone="no"?>
<!-- Created with Inkscape (http://www.inkscape.org/) -->

<svg
   version="1.1"
   id="svg1"
   width="200"
   height="200"
   viewBox="0 0 200 200"
   sodipodi:docname="purple_icon.svg"
   inkscape:version="1.3.2 (091e20e, 2023-11-25, custom)"
   xmlns:inkscape="http://www.inkscape.org/namespaces/inkscape"
   xmlns:sodipodi="http://sodipodi.sourceforge.net/DTD/sodipodi-0.dtd"
   xmlns:xlink="http://www.w3.org/1999/xlink"
   xmlns="http://www.w3.org/2000/svg"
   xmlns:svg="http://www.w3.org/2000/svg">
  <defs
     id="defs1">
    <linearGradient
       id="linearGradient41"
       inkscape:collect="always">
      <stop
         style="stop-color:#800080;stop-opacity:1;"
         offset="0"
         id="stop41" />
      <stop
         style="stop-color:#800080;stop-opacity:0;"
         offset="1"
         id="stop42" />
    </linearGradient>
    <linearGradient
       inkscape:collect="always"
       xlink:href="#linearGradient41"
       id="linearGradient42"
       x1="96.090034"
       y1="0.33597913"
       x2="95.082092"
       y2="432.40518"
       gradientUnits="userSpaceOnUse" />
  </defs>
  <sodipodi:namedview
     id="namedview1"
     pagecolor="#ffffff"
     bordercolor="#000000"
     borderopacity="0.25"
     inkscape:showpageshadow="2"
     inkscape:pageopacity="0.0"
     inkscape:pagecheckerboard="0"
     inkscape:deskcolor="#d1d1d1"
     inkscape:zoom="2.9763752"
     inkscape:cx="107.68132"
     inkscape:cy="114.56889"
     inkscape:window-width="1580"
     inkscape:window-height="1243"
     inkscape:window-x="517"
     inkscape:window-y="117"
     inkscape:window-maximized="0"
     inkscape:current-layer="layer2" />
  <g
     inkscape:groupmode="layer"
     id="layer2"
     inkscape:label="svg">
    <path
       style="display:inline;fill:url(#linearGradient42);fill-opacity:1;stroke:#000000;stroke-opacity:0"
       d="M -0.16764459,0 0.16764459,200 200,200.16764 V 0 Z"
       id="path2" />
    <path
       style="display:inline;fill:#ffffff;stroke:#000000;stroke-opacity:0"
       d="m 103.60436,40.569992 -24.979046,11.735121 0.33529,10.896899 -12.573345,3.520536 1.508801,7.711651 10.896899,-0.335289 0.880134,63.74686 c 0.162406,1.54285 0.06549,3.73402 0.628668,4.27493 0.882607,1.93202 1.114606,4.00862 2.891869,5.74183 1.392208,2.32132 2.653601,2.81122 3.939647,3.64627 1.877861,1.14964 3.377192,2.48855 6.077117,3.22716 1.977929,0.63747 4.003142,1.204 6.20285,1.5088 2.787186,0.0303 5.088826,-0.10125 7.208716,-0.29338 2.19105,-0.35448 4.28771,-0.77975 6.03521,-1.46689 l 6.70578,-3.05951 5.69992,-3.3948 9.01089,-6.07712 1.88601,-1.46689 -5.19699,-6.3705 -5.19698,3.26908 c -1.36707,0.75846 -2.7169,1.55139 -4.19111,2.09555 l -2.51467,0.50294 -2.05365,0.20956 -1.29925,-0.0419 c -1.63115,0.0254 -2.28885,-0.16416 -3.68818,-0.33529 -1.45292,-0.27741 -2.90584,-0.47623 -4.35876,-1.5088 -0.49297,-0.3054 -1.02082,-0.71545 -1.84409,-2.01174 -0.5331,-0.51579 -0.56561,-1.28187 -0.67057,-2.01173 -0.32021,-1.14867 -0.39791,-1.44854 -0.50294,-1.84409 l -0.33529,-1.67645 V 75.440067 l 22.63202,0.670578 1.5088,-13.914501 -23.63788,1.676446 z"
       id="path1"
       sodipodi:nodetypes="ccccccccccccccccccccccccccccccccccc" />
    <text
       xml:space="preserve"
       style="font-style:normal;font-variant:normal;font-weight:normal;font-stretch:normal;font-size:16.3681px;font-family:'Blackadder ITC';-inkscape-font-specification:'Blackadder ITC';white-space:pre;inline-size:63.9078;display:none;fill:#ffffff;stroke:#000000;stroke-opacity:0"
       x="88.516342"
       y="184.74434"
       id="text12"
       transform="matrix(1.3901413,0,0,1.5465566,-50.135125,-102.67338)"><tspan
         x="88.516342"
         y="184.74434"
         id="tspan2">preview</tspan></text>
  </g>
</svg>
